<svg width="24" height="21" viewBox="0 0 24 21" fill="none" xmlns="http://www.w3.org/2000/svg">
<path d="M10.2908 2.85923L1.82075 16.9992C1.64612 17.3017 1.55372 17.6445 1.55274 17.9937C1.55176 18.343 1.64224 18.6864 1.81518 18.9898C1.98812 19.2931 2.23748 19.546 2.53846 19.7231C2.83944 19.9002 3.18155 19.9954 3.53075 19.9992H20.4708C20.82 19.9954 21.1621 19.9002 21.463 19.7231C21.764 19.546 22.0134 19.2931 22.1863 18.9898C22.3593 18.6864 22.4497 18.343 22.4488 17.9937C22.4478 17.6445 22.3554 17.3017 22.1808 16.9992L13.7108 2.85923C13.5325 2.56533 13.2815 2.32235 12.9819 2.15371C12.6824 1.98508 12.3445 1.89648 12.0008 1.89648C11.657 1.89648 11.3191 1.98508 11.0196 2.15371C10.72 2.32235 10.469 2.56533 10.2908 2.85923V2.85923Z" stroke="#ED0A34" stroke-width="2" stroke-linecap="round" stroke-linejoin="round"/>
<path d="M12 8V12" stroke="#ED0A34" stroke-width="2" stroke-linecap="round" stroke-linejoin="round"/>
<path d="M12 16H12.01" stroke="#ED0A34" stroke-width="2" stroke-linecap="round" stroke-linejoin="round"/>
</svg>
